<svg xmlns="http://www.w3.org/2000/svg" viewBox="0 0 64 64">
  <circle cx="32" cy="32" r="30" fill="#ffffff" stroke="#222" stroke-width="2"/>
  <polygon points="32,8 40,16 38,26 26,26 24,16" fill="#222"/>
  <polygon points="50,24 56,34 50,42 42,38 42,28" fill="#222"/>
  <polygon points="14,24 22,28 22,38 14,42 8,34" fill="#222"/>
  <polygon points="22,48 26,40 38,40 42,48 36,56 28,56" fill="#222"/>
  <line x1="32" y1="8" x2="24" y2="16" stroke="#222" stroke-width="1.5" fill="none"/>
  <line x1="32" y1="8" x2="40" y2="16" stroke="#222" stroke-width="1.5" fill="none"/>
  <line x1="40" y1="16" x2="50" y2="24" stroke="#222" stroke-width="1.5" fill="none"/>
  <line x1="42" y1="28" x2="38" y2="26" stroke="#222" stroke-width="1.5" fill="none"/>
  <line x1="26" y1="26" x2="22" y2="28" stroke="#222" stroke-width="1.5" fill="none"/>
  <line x1="24" y1="16" x2="14" y2="24" stroke="#222" stroke-width="1.5" fill="none"/>
  <line x1="14" y1="42" x2="22" y2="48" stroke="#222" stroke-width="1.5" fill="none"/>
  <line x1="22" y1="38" x2="26" y2="40" stroke="#222" stroke-width="1.5" fill="none"/>
  <line x1="38" y1="40" x2="42" y2="38" stroke="#222" stroke-width="1.5" fill="none"/>
  <line x1="50" y1="42" x2="42" y2="48" stroke="#222" stroke-width="1.5" fill="none"/>
  <line x1="28" y1="56" x2="22" y2="52" stroke="#222" stroke-width="1.5" fill="none"/>
  <line x1="36" y1="56" x2="42" y2="52" stroke="#222" stroke-width="1.5" fill="none"/>
</svg>
